<svg height='100px' width='100px'  fill="#000000" xmlns="http://www.w3.org/2000/svg" xmlns:xlink="http://www.w3.org/1999/xlink" version="1.1" x="0px" y="0px" viewBox="-255 347 100 100" enable-background="new -255 347 100 100" xml:space="preserve"><path fill-rule="evenodd" clip-rule="evenodd" fill="#000000" d="M-172.6,409.4c5.1,12-7,24.1-19,19c-4.9,12.1-22,12.1-26.9,0  c-12,5.1-24.1-7-19-19c-12.1-4.9-12.1-22,0-26.9c-5.1-12,7-24.1,19-19c4.9-12.1,22-12.1,26.9,0c12-5.1,24.1,7,19,19  C-160.5,387.5-160.5,404.5-172.6,409.4z M-175.8,383.9c4.6-10.8-6.3-21.7-17.1-17.1c-4.4-10.9-19.8-10.9-24.2,0  c-10.8-4.6-21.7,6.3-17.1,17.1c-4.8,1.9-8.1,6.6-8.1,12.1s3.4,10.2,8.1,12.1c-4.6,10.8,6.3,21.7,17.1,17.1  c4.4,10.9,19.8,10.9,24.2,0c10.8,4.6,21.7-6.3,17.1-17.1C-164.9,403.6-164.9,388.3-175.8,383.9z M-192.6,418.8  c-5.7,0-10.4-4.6-10.4-10.4c0-5.7,4.6-10.4,10.4-10.4s10.4,4.6,10.4,10.4C-182.2,414.2-186.8,418.8-192.6,418.8z M-192.6,402.2  c-3.4,0-6.2,2.8-6.2,6.2c0,3.4,2.8,6.2,6.2,6.2s6.2-2.8,6.2-6.2C-186.3,405-189.1,402.2-192.6,402.2z M-221.6,409.6l30.2-30.2l3,3  l-30.2,30.2L-221.6,409.6z M-217.4,393.9c-5.7,0-10.4-4.6-10.4-10.4c0-5.7,4.6-10.4,10.4-10.4s10.4,4.6,10.4,10.4  C-207.1,389.3-211.7,393.9-217.4,393.9z M-217.4,377.3c-3.4,0-6.2,2.8-6.2,6.2c0,3.4,2.8,6.2,6.2,6.2s6.2-2.8,6.2-6.2  C-211.2,380.1-214,377.3-217.4,377.3z"></path></svg>