<svg height='100px' width='100px'  fill="#000000" xmlns="http://www.w3.org/2000/svg" xmlns:xlink="http://www.w3.org/1999/xlink" version="1.1" x="0px" y="0px" viewBox="0 0 96 96" enable-background="new 0 0 96 96" xml:space="preserve"><g><path fill="#000000" d="M48,96C25.944,96,8,78.056,8,56s17.944-40,40-40s40,17.944,40,40S70.056,96,48,96z M48,20   c-19.851,0-36,16.149-36,36s16.149,36,36,36s36-16.149,36-36S67.851,20,48,20z"></path></g><g><rect x="46" y="12" fill="#000000" width="4" height="9"></rect></g><g><path fill="#000000" d="M53,14H43c-2.757,0-5-2.243-5-5s2.243-5,5-5h10c2.757,0,5,2.243,5,5S55.757,14,53,14z M43,8   c-0.552,0-1,0.448-1,1s0.448,1,1,1h10c0.552,0,1-0.448,1-1s-0.448-1-1-1H43z"></path></g><g><g><rect x="46" y="86" fill="#000000" width="4" height="8"></rect></g><g><rect x="46" y="18" fill="#000000" width="4" height="8"></rect></g><g><rect x="10" y="54" fill="#000000" width="8" height="4"></rect></g><g><rect x="78" y="54" fill="#000000" width="8" height="4"></rect></g></g><g><g><rect x="68.041" y="78.042" transform="matrix(0.7071 0.7071 -0.7071 0.7071 77.6984 -27.4974)" fill="#000000" width="8.001" height="4"></rect></g><g><rect x="19.958" y="29.959" transform="matrix(0.7071 0.7071 -0.7071 0.7071 29.6154 -7.5808)" fill="#000000" width="8.001" height="4"></rect></g><g><rect x="21.959" y="76.041" transform="matrix(0.7071 0.7071 -0.7071 0.7071 63.6152 6.5024)" fill="#000000" width="4" height="8.001"></rect></g><g><rect x="70.042" y="27.958" transform="matrix(0.7071 0.7071 -0.7071 0.7071 43.6985 -41.5806)" fill="#000000" width="4" height="8.001"></rect></g></g><g><polygon fill="#000000" points="48.984,58.308 27.515,52.94 28.485,49.06 47.016,53.692 58.264,34.008 61.736,35.992  "></polygon></g></svg>